<?xml version="1.0" standalone="no"?><!DOCTYPE svg PUBLIC "-//W3C//DTD SVG 1.1//EN" "http://www.w3.org/Graphics/SVG/1.1/DTD/svg11.dtd"><svg t="1588158400036" class="icon" viewBox="0 0 1092 1024" version="1.1" xmlns="http://www.w3.org/2000/svg" p-id="5168" xmlns:xlink="http://www.w3.org/1999/xlink" width="213.28125" height="200"><defs><style type="text/css"></style></defs><path d="M546.139757 0a272.884744 272.884744 0 1 0 272.884744 272.884744A272.884744 272.884744 0 0 0 546.139757 0z m0 477.548301a204.663558 204.663558 0 1 1 204.663558-204.663557 204.663558 204.663558 0 0 1-204.663558 204.663557z" p-id="5169"></path><path d="M34.480863 1023.317788a34.110593 34.110593 0 0 0 34.110593-30.699534c34.110593-248.836775 234.680879-441.049967 477.548301-441.049966S989.577466 743.781479 1023.688059 992.618254a34.110593 34.110593 0 0 0 34.110593 30.699534 35.986676 35.986676 0 0 0 34.110593-41.44437C1053.875933 697.391073 824.14109 477.548301 546.139757 477.548301S38.403582 697.391073 0.37027 982.214524A35.986676 35.986676 0 0 0 34.480863 1023.317788z" p-id="5170"></path><path d="M546.139757 1023.317788a34.110593 34.110593 0 0 1-24.900732-10.744837l-97.897402-104.207861a34.110593 34.110593 0 0 1-7.845436-32.405063l97.897401-350.31579a34.110593 34.110593 0 0 1 65.662892 0l97.897401 350.31579a34.110593 34.110593 0 0 1-7.845436 32.405063l-98.067955 104.71952A34.110593 34.110593 0 0 1 546.139757 1023.317788z m-59.86409-148.210526l59.86409 64.810126 59.864091-64.127914L546.139757 661.57495z" p-id="5171"></path></svg>