<?xml version="1.0" standalone="no"?><!DOCTYPE svg PUBLIC "-//W3C//DTD SVG 1.1//EN" "http://www.w3.org/Graphics/SVG/1.1/DTD/svg11.dtd"><svg t="1588243613208" class="icon" viewBox="0 0 1024 1024" version="1.1" xmlns="http://www.w3.org/2000/svg" p-id="2236" xmlns:xlink="http://www.w3.org/1999/xlink" width="200" height="200"><defs><style type="text/css"></style></defs><path d="M856.429313 501.289728a52.047012 52.047012 0 0 1-52.473627-51.40709v-69.111606a282.845646 282.845646 0 0 0-565.691292 0v69.111606a52.473627 52.473627 0 0 1-104.733946 0v-69.111606A383.953366 383.953366 0 0 1 521.11004 0.017278 383.953366 383.953366 0 0 1 908.689632 380.771032v69.111606a51.833704 51.833704 0 0 1-52.260319 51.40709z" fill="#6E706E" p-id="2237"></path><path d="M362.622623 443.696723a52.047012 52.047012 0 0 1-52.473627-51.620397A206.694895 206.694895 0 0 1 521.11004 191.993961a51.40709 51.40709 0 1 1 0 102.814179 102.814179 102.814179 0 0 0-106.653713 98.334723A52.047012 52.047012 0 0 1 362.622623 443.696723zM597.260791 1023.89292a51.620397 51.620397 0 1 1 0-103.027487 198.80252 198.80252 0 0 0 184.297616-121.585232 52.686934 52.686934 0 0 1 68.258376-27.943273 50.980475 50.980475 0 0 1 28.583195 67.191839A303.536466 303.536466 0 0 1 597.260791 1023.89292z" fill="#3589F5" p-id="2238"></path><path d="M178.538315 869.458344A177.25847 177.25847 0 0 1 0 693.906333v-101.747642a177.471778 177.471778 0 0 1 178.538315-175.552011 177.471778 177.471778 0 0 1 178.751622 175.552011v101.747642a177.25847 177.25847 0 0 1-178.751622 175.552011z m0-350.037485a73.377754 73.377754 0 0 0-73.804369 72.737832v101.747642a73.804369 73.804369 0 0 0 147.608738 0v-101.747642a73.377754 73.377754 0 0 0-73.804369-72.737832z m666.799012 350.037485a177.25847 177.25847 0 0 1-178.751623-175.552011v-101.747642a178.751622 178.751622 0 0 1 357.289938 0v101.747642a177.25847 177.25847 0 0 1-178.538315 175.552011z m0-350.037485a73.377754 73.377754 0 0 0-73.804369 72.737832v101.747642a73.804369 73.804369 0 0 0 147.608738 0v-101.747642a73.377754 73.377754 0 0 0-73.804369-72.737832z" fill="#6E706E" p-id="2239"></path></svg>