<?xml version="1.0" standalone="no"?><!DOCTYPE svg PUBLIC "-//W3C//DTD SVG 1.1//EN" "http://www.w3.org/Graphics/SVG/1.1/DTD/svg11.dtd"><svg t="1588158247859" class="icon" viewBox="0 0 1029 1024" version="1.1" xmlns="http://www.w3.org/2000/svg" p-id="3597" xmlns:xlink="http://www.w3.org/1999/xlink" width="200.9765625" height="200"><defs><style type="text/css"></style></defs><path d="M372.187702 0H0.009969v372.688967C0.009969 431.992012 48.065885 480.559161 107.880164 480.559161h372.688966V107.870195C480.56913 48.567149 432.001981 0 372.187702 0z m21.983026 394.160759h-286.290564c-11.758362 0-21.471792-9.71343-21.471793-21.471792v-286.290565h286.290565c11.758362 0 21.471792 9.71343 21.471792 21.471793v286.290564zM544.984507 107.870195V480.559161h372.688967c59.814279 0 107.870195-48.567149 107.870194-107.870194V0h-372.688966c-59.303045 0-107.870195 48.567149-107.870195 107.870195z m372.688967 286.290564h-286.290564v-286.290564c0-11.758362 9.71343-21.471792 21.471792-21.471793h286.290564v286.290565c0 11.758362-9.202197 21.471792-21.471792 21.471792zM0.009969 651.311033v372.688967h372.688967c59.814279 0 107.870195-48.567149 107.870194-107.870195v-372.688966H107.880164c-59.814279 0-107.870195 48.055916-107.870195 107.870194z m372.177733 286.290565h-286.290564v-286.290565c0-11.758362 9.71343-21.471792 21.471793-21.471792h286.290564v286.290564c0.511233 11.758362-9.202197 21.471792-21.471793 21.471793zM917.673474 543.440839h-372.688967v372.688966c0 59.814279 48.567149 107.870195 107.870195 107.870195h372.688966v-372.688967c0-59.814279-48.055916-107.870195-107.870194-107.870194z m21.471792 394.160759h-286.290564c-11.758362 0-21.471792-9.71343-21.471792-21.471793v-286.290564h286.290564c11.758362 0 21.471792 9.71343 21.471792 21.471792v286.290565z" p-id="3598"></path></svg>