<?xml version="1.0" standalone="no"?><!DOCTYPE svg PUBLIC "-//W3C//DTD SVG 1.1//EN" "http://www.w3.org/Graphics/SVG/1.1/DTD/svg11.dtd"><svg t="1590743150631" class="icon" viewBox="0 0 1110 1024" version="1.1" xmlns="http://www.w3.org/2000/svg" p-id="10498" xmlns:xlink="http://www.w3.org/1999/xlink" width="216.796875" height="200"><defs><style type="text/css"></style></defs><path d="M102.4 645.907692l-23.630769 31.507693V118.153846c0-23.630769 15.753846-39.384615 39.384615-39.384615h630.153846c23.630769 0 39.384615 15.753846 39.384616 39.384615V157.538462c0 23.630769 15.753846 39.384615 39.384615 39.384615s39.384615-15.753846 39.384615-39.384615v-39.384616C866.461538 55.138462 811.323077 0 748.307692 0h-630.153846C55.138462 0 0 55.138462 0 118.153846v559.261539c0 31.507692 15.753846 55.138462 39.384615 70.892307H78.769231c15.753846 0 31.507692-7.876923 47.261538-15.753846l23.630769-23.630769c15.753846-7.876923 15.753846-39.384615 7.876924-55.138462-15.753846-15.753846-39.384615-15.753846-55.138462-7.876923zM669.538462 630.153846h-157.538462c-23.630769 0-39.384615 15.753846-39.384615 39.384616s15.753846 39.384615 39.384615 39.384615h157.538462c23.630769 0 39.384615-15.753846 39.384615-39.384615S693.169231 630.153846 669.538462 630.153846z m157.538461-157.538461h-315.076923c-23.630769 0-39.384615 15.753846-39.384615 39.384615s15.753846 39.384615 39.384615 39.384615h315.076923c23.630769 0 39.384615-15.753846 39.384615-39.384615s-15.753846-39.384615-39.384615-39.384615z m157.538462-196.923077h-630.153847C291.446154 275.692308 236.307692 330.830769 236.307692 393.846154v393.846154c0 63.015385 55.138462 118.153846 118.153846 118.153846H866.461538l118.153847 102.4c15.753846 7.876923 31.507692 15.753846 47.261538 15.753846 7.876923 0 23.630769 0 31.507692-7.876923 23.630769-15.753846 47.261538-39.384615 47.261539-70.892308V393.846154c-7.876923-63.015385-63.015385-118.153846-126.030769-118.153846z m-86.646154 551.384615H354.461538c-23.630769 0-39.384615-15.753846-39.384615-39.384615V393.846154c0-23.630769 15.753846-39.384615 39.384615-39.384616h630.153847c23.630769 0 39.384615 15.753846 39.384615 39.384616l7.876923 551.384615-133.907692-118.153846z" p-id="10499"></path></svg>