<?xml version="1.0" standalone="no"?><!DOCTYPE svg PUBLIC "-//W3C//DTD SVG 1.1//EN" "http://www.w3.org/Graphics/SVG/1.1/DTD/svg11.dtd"><svg t="1590743547390" class="icon" viewBox="0 0 1024 1024" version="1.1" xmlns="http://www.w3.org/2000/svg" p-id="18174" xmlns:xlink="http://www.w3.org/1999/xlink" width="200" height="200"><defs><style type="text/css"></style></defs><path d="M870.08 128H153.92C68.992 128 0 195.648 0 278.656v530.688c0 80.128 64.192 145.6 144.832 150.208 3.008 0.192 5.952 0.448 9.088 0.448h716.16a154.944 154.944 0 0 0 100.032-36.48A149.12 149.12 0 0 0 1024 809.344v-530.56C1024 195.584 955.008 128 870.08 128zM225.408 254.848c51.008 0 92.352 40.512 92.352 90.432S276.48 435.712 225.408 435.712s-92.352-40.512-92.352-90.432 41.344-90.432 92.352-90.432z m644.672 604.864H153.92a20.288 20.288 0 0 1-18.112-30.272l112.832-197.568a43.52 43.52 0 0 1 74.496 0l77.44 131.456a41.28 41.28 0 0 0 70.72 0L630.4 493.824a43.52 43.52 0 0 1 74.432 0l187.84 328.448a25.28 25.28 0 0 1-22.592 37.44z" p-id="18175"></path></svg>