<?xml version="1.0" standalone="no"?><!DOCTYPE svg PUBLIC "-//W3C//DTD SVG 1.1//EN" "http://www.w3.org/Graphics/SVG/1.1/DTD/svg11.dtd"><svg t="1588158115865" class="icon" viewBox="0 0 1024 1024" version="1.1" xmlns="http://www.w3.org/2000/svg" p-id="2201" xmlns:xlink="http://www.w3.org/1999/xlink" width="200" height="200"><defs><style type="text/css"></style></defs><path d="M553.339663 352.005238l170.806351 0 0 170.848257-170.806351 0 0-170.848257Z" p-id="2202"></path><path d="M553.339663 565.30365l170.806351 0 0 170.890162-170.806351 0 0-170.890162Z" p-id="2203"></path><path d="M321.183827 565.30365l170.806351 0 0 170.890162-170.806351 0 0-170.890162Z" p-id="2204"></path><path d="M274.20789 517.699132l217.740383 0L491.948273 299.958749 274.20789 299.958749 274.20789 517.699132zM308.44459 334.153544l149.350794 0 0 149.308889L308.44459 483.462432 308.44459 334.153544z" p-id="2205"></path><path d="M797.64806 152.912752 226.435751 152.912752c-41.109183 0-74.591586 33.482403-74.591586 74.549681l0 569.03323c0 41.067278 33.440498 74.549681 74.591586 74.549681l571.21231 0c41.067278 0 74.549681-33.482403 74.549681-74.549681L872.197741 227.462432C872.197741 186.395155 838.715338 152.912752 797.64806 152.912752zM827.275168 796.495662c0 16.385006-13.284007 29.585202-29.627108 29.585202L226.435751 826.080864c-16.3431 0-29.669013-13.200196-29.669013-29.585202L196.766738 227.462432c0-16.3431 13.284007-29.585202 29.669013-29.585202l571.21231 0c16.3431 0 29.627108 13.242102 29.627108 29.585202L827.275168 796.495662z" p-id="2206"></path></svg>