<?xml version="1.0" standalone="no"?><!DOCTYPE svg PUBLIC "-//W3C//DTD SVG 1.1//EN" "http://www.w3.org/Graphics/SVG/1.1/DTD/svg11.dtd"><svg t="1590743098901" class="icon" viewBox="0 0 1024 1024" version="1.1" xmlns="http://www.w3.org/2000/svg" p-id="9747" xmlns:xlink="http://www.w3.org/1999/xlink" width="200" height="200"><defs><style type="text/css"></style></defs><path d="M267.264 369.493333c-91.477333 32.426667-157.525333 82.432-157.525333 142.506667s66.048 110.08 157.525333 142.506667a907.093333 907.093333 0 0 1 0-285.013334zM346.965333 346.965333a776.192 776.192 0 0 0 0 330.069334 794.624 794.624 0 0 0 165.034667 17.066666 794.624 794.624 0 0 0 165.034667-17.066666 794.624 794.624 0 0 0 17.066666-165.034667 794.624 794.624 0 0 0-17.066666-165.034667 776.192 776.192 0 0 0-330.069334 0zM654.506667 267.264c-32.426667-91.477333-82.432-157.525333-142.506667-157.525333s-110.08 66.048-142.506667 157.525333a907.093333 907.093333 0 0 1 285.013334 0z" p-id="9748"></path><path d="M512 0a512 512 0 1 0 512 512A512 512 0 0 0 512 0z m226.133333 738.133333C695.466667 887.466667 611.157333 987.477333 512 987.477333S328.533333 887.466667 285.866667 738.133333C136.533333 695.466667 36.522667 611.157333 36.522667 512S136.533333 328.533333 285.866667 285.866667C328.533333 136.533333 412.842667 36.522667 512 36.522667S695.466667 136.533333 738.133333 285.866667C887.466667 328.533333 987.477333 412.842667 987.477333 512S887.466667 695.466667 738.133333 738.133333z" p-id="9749"></path><path d="M756.736 369.493333A884.906667 884.906667 0 0 1 768 512a884.906667 884.906667 0 0 1-11.264 142.506667c91.477333-32.426667 157.525333-82.432 157.525333-142.506667s-66.048-110.08-157.525333-142.506667zM369.493333 756.736c32.426667 91.477333 82.432 157.525333 142.506667 157.525333s110.08-66.048 142.506667-157.525333A884.906667 884.906667 0 0 1 512 768a884.906667 884.906667 0 0 1-142.506667-11.264z" p-id="9750"></path></svg>