<?xml version="1.0" standalone="no"?><!DOCTYPE svg PUBLIC "-//W3C//DTD SVG 1.1//EN" "http://www.w3.org/Graphics/SVG/1.1/DTD/svg11.dtd"><svg t="1590743293776" class="icon" viewBox="0 0 1024 1024" version="1.1" xmlns="http://www.w3.org/2000/svg" p-id="12636" xmlns:xlink="http://www.w3.org/1999/xlink" width="200" height="200"><defs><style type="text/css"></style></defs><path d="M814.483995 661.390391h29.374834v17.343312h-29.374834v-17.343312z m-72.797111-51.453958h28.702861v16.703337h-28.702861v-16.703337z m72.797111 0h29.374834v16.703337h-29.374834v-16.703337z m-72.797111 51.453958h28.702861v17.343312h-28.702861v-17.343312z m-142.906328-69.469243h29.406833v40.094409h-29.406833v-40.094409z m112.827522-154.297876c-154.265878 0-279.124922 124.891043-279.124922 279.156921s124.891043 279.156921 279.124922 279.156921c154.265878 0 279.18892-124.891043 279.18892-279.156921s-125.563017-279.156921-279.18892-279.156921z m58.781667 132.922724v-33.374675h44.126249v33.374675h72.093139v146.90617h-187.640553v-146.90617h71.421165z m-96.124185 255.125875v78.1089h-46.078171v-64.765429l-82.844712 23.999047-20.67118-44.734224 29.342836-7.359708v-219.031308h-20.031205V549.138846h160.281638v42.750303h-19.999206v190.296448l12.031523-3.327868 14.687417 38.04649-26.750939 8.703655z m228.374936-52.797904h-128.858885l-4.03184 16.031363h107.57973l-7.391707 59.453641c-3.327868 36.094567-26.71894 54.077854-71.485163 54.077854-11.32755 0-22.6871-0.639975-34.686623-2.655895 0-14.015444-4.03184-28.702861-12.031522-44.09425 8.703655 1.311948 16.031364 2.687893 22.687099 3.327868 6.687735 0.671973 13.375469 1.311948 20.063204 1.311948 15.327392 0 23.391072-5.983763 25.374993-18.015285l2.687893-14.687417h-112.859521l13.343471-54.749827h-39.422436v-39.390437h219.063306v39.422435z m-303.85994 28.062886l29.406833-7.327709v-36.734542h-29.406833z m0-126.202992h29.406833v40.062411h-29.406833v-40.062411z m-218.071345-7.135716c11.071561-66.557359 41.150367-123.803087 87.612522-172.473155a335.730676 335.730676 0 0 1 114.90744-79.38885 10.303591 10.303591 0 0 0 5.055799-5.215793c3.711853-9.727614 6.719733-19.711218 10.431586-29.438831a11.039562 11.039562 0 0 1 5.279791-5.567779 53.757866 53.757866 0 0 0 22.015126-18.39927c9.951605-14.271434 12.063521-30.654783 12.639499-47.294123 0.51198-15.391389-3.51986-29.438832-15.199397-40.510392-1.119956-1.055958-1.567938-3.26387-1.663934-4.959803-0.703972-13.183477-1.215952-26.398952-1.951923-39.582429a338.64256 338.64256 0 0 0-23.583064-107.995714c-13.759454-34.238641-35.806579-61.917543-68.253291-80.700798C471.361613 3.27251 410.660022-7.127077 346.662562 4.840448 287.336916 15.912008 242.954678 48.774704 214.091823 101.988592c-14.303432 26.366954-20.927169 55.357803-24.959009 84.66864-3.391865 24.991008-3.967843 50.398-5.887767 75.581-0.191992 2.303909-0.447982 5.023801-1.75993 6.719734-20.991167 26.846935-19.455228 55.101813-4.575818 83.64468 5.343788 10.303591 13.503464 18.623261 24.831014 23.199079 1.983921 0.799968 3.807849 3.359867 4.639816 5.535781 4.127836 10.751573 7.583699 21.791135 11.807532 32.478711 5.983763 15.135399 14.783413 28.22288 28.254878 37.982492 6.30375 4.575818 11.903528 10.111599 17.695298 15.391389 8.511662 7.775691 14.175437 17.279314 15.391389 28.894854 1.023959 9.599619 1.599937 19.263235 1.951923 28.894853 0.479981 13.471465-3.583858 25.662982-11.583541 36.510551-14.943407 20.287195-35.390595 33.726661-58.269687 42.686306-22.271116 8.735653-45.438197 15.263394-68.317289 22.367112-21.631142 6.751732-43.83826 11.807531-63.421483 23.999048-22.815095 14.175437-39.614428 32.702702-43.646267 60.253608-2.239911 15.295393-3.839848 30.654783-5.087798 46.014174-2.143915 25.95097-0.76797 51.64595 6.303749 76.892948 3.199873 11.391548 9.343629 19.327233 21.375152 21.567144 26.302956 4.895806 52.509916 10.687576 79.004865 14.207437 38.686465 5.151796 77.59692 8.991643 116.475377 12.735494 53.373882 5.119797 106.875758 8.191675 160.569627 7.679695 1.919924-0.031999 3.839848-0.319987 6.751732-0.543978-1.663934-3.327868-2.815888-5.759771-4.095837-8.159676-36.350557-67.101337-49.246046-138.33051-36.702543-213.687519z" p-id="12637"></path></svg>