<?xml version="1.0" standalone="no"?><!DOCTYPE svg PUBLIC "-//W3C//DTD SVG 1.1//EN" "http://www.w3.org/Graphics/SVG/1.1/DTD/svg11.dtd"><svg t="1590743471976" class="icon" viewBox="0 0 1144 1024" version="1.1" xmlns="http://www.w3.org/2000/svg" p-id="17377" xmlns:xlink="http://www.w3.org/1999/xlink" width="223.4375" height="200"><defs><style type="text/css"></style></defs><path d="M564.479472 927.208481c0-25.479388 20.353357-48.244994 48.39576-48.244995h432.546525c25.479388 0 48.39576 20.353357 48.39576 48.244995v48.395759h50.80801l-2.563016 48.39576H516.234478l-2.563015-45.832744 48.39576-2.563016s2.41225-20.353357 2.412249-48.395759z m-529.187279-241.677268L569.605503 405.559482l48.39576 83.976443L109.016575 812.777385c-34.525324 19.90106-78.548881 8.59364-99.203769-25.479387-20.353357-38.143698-7.689046-81.413428 25.479387-101.766785z m1007.566549-137.347467l-292.485277 170.515901c-22.916372 12.664311-53.371025 5.126031-66.186101-17.790342-12.815077-22.916372-5.126031-53.371025 17.790342-66.186101l292.636042-167.952886c22.916372-12.664311 53.371025-5.126031 66.186101 17.790342 12.664311 22.916372 4.975265 50.808009-17.941107 63.623086zM508.545432 301.229682L801.181475 130.713781l167.952885 292.786808-292.636042 167.952886-167.952886-290.223793z m269.71967-211.071849L485.62906 258.110718c-22.916372 12.815077-53.371025 5.126031-66.186101-17.790341-12.664311-22.916372-5.126031-53.52179 17.790341-66.186101L729.869343 6.18139C752.785715-6.482921 783.240367 1.055359 796.055444 23.971731c12.815077 22.916372 5.126031 53.371025-17.790342 66.186102z" p-id="17378"></path></svg>