<?xml version="1.0" standalone="no"?><!DOCTYPE svg PUBLIC "-//W3C//DTD SVG 1.1//EN" "http://www.w3.org/Graphics/SVG/1.1/DTD/svg11.dtd"><svg t="1590743236887" class="icon" viewBox="0 0 1024 1024" version="1.1" xmlns="http://www.w3.org/2000/svg" p-id="11872" xmlns:xlink="http://www.w3.org/1999/xlink" width="200" height="200"><defs><style type="text/css"></style></defs><path d="M136.429 963C94.943 963 61 929.057 61 887.571V230.5c0-24.024 19.476-43.5 43.5-43.5s43.5 19.476 43.5 43.5V856c0 11.046 8.954 20 20 20h562.5c24.024 0 43.5 19.476 43.5 43.5S754.524 963 730.5 963H136.429z m125.19-126C220.361 837 186 803.393 186 762.138V136.206C186 94.951 220.361 62 261.619 62H887.55C928.804 62 962 94.951 962 136.206v625.932C962 803.393 928.804 837 887.55 837H261.619zM875 750V149H274v601h601zM552.556 598.895l-58.763 32.519c-20.82 11.522-45.757-6.036-41.93-29.522l12.077-74.096a45.492 45.492 0 0 0-12.353-39.103l-51.393-52.626c-16.21-16.6-6.853-44.579 16.083-48.086l67.993-10.397a45.49 45.49 0 0 0 34.305-25.64l30.208-64.355c10.258-21.854 41.342-21.854 51.6 0.001l30.205 64.353a45.493 45.493 0 0 0 34.306 25.641l67.992 10.397c22.935 3.507 32.293 31.486 16.083 48.086l-51.393 52.627a45.495 45.495 0 0 0-12.353 39.103l12.077 74.096c3.828 23.486-21.11 41.044-41.93 29.521l-58.758-32.518a45.493 45.493 0 0 0-44.056-0.001z" p-id="11873"></path></svg>